<?xml version="1.0" encoding="utf-8"?>
<svg style="fill: rgb(38, 166, 154);" width="32" height="32" viewBox="0 0 24 24" xmlns="http://www.w3.org/2000/svg">
  <defs/>
  <path d="M19 2h-4.18C14.4.84 13.3 0 12 0c-1.3 0-2.4.84-2.82 2H5c-1.1 0-2 .9-2 2v16c0 1.1.9 2 2 2h14c1.1 0 2-.9 2-2V4c0-1.1-.9-2-2-2zm-7 0c.55 0 1 .45 1 1s-.45 1-1 1-1-.45-1-1 .45-1 1-1zm7 18H5V4h2v3h10V4h2v16z"/>
  <path d="M0 0h24v24H0z" style="fill: none;"/>
  <rect transform="matrix(0.04931662082672119, 0, 0, 0.04931662082672119, -12.658309938164892, -0.6990309867728228)" width="285" height="264" x="359" y="156" style="fill: rgb(255, 255, 255);"/>
</svg>