<?xml version="1.0" encoding="UTF-8"?>
<!DOCTYPE svg PUBLIC "-//W3C//DTD SVG 1.1//EN" "http://www.w3.org/Graphics/SVG/1.1/DTD/svg11.dtd">
<!-- Creator: CorelDRAW X7 -->
<svg xmlns="http://www.w3.org/2000/svg" xml:space="preserve" width="30mm" height="30mm" version="1.1" style="shape-rendering:geometricPrecision; text-rendering:geometricPrecision; image-rendering:optimizeQuality; fill-rule:evenodd; clip-rule:evenodd"
viewBox="0 0 181 181"
 xmlns:xlink="http://www.w3.org/1999/xlink">
 <defs>
  <style type="text/css">
   <![CDATA[
    .fil2 {fill:#FEFEFE}
    .fil0 {fill:white}
    .fil1 {fill:#ECEFF1;fill-opacity:0.501961}
    .fil4 {fill:#FEFEFE;fill-opacity:0.501961}
    .fil3 {fill:#ECEFF1;fill-opacity:0.521569}
   ]]>
  </style>
 </defs>
 <g id="Слой_x0020_1">
  <metadata id="CorelCorpID_0Corel-Layer"/>
  <g id="_1069918996960">
   <path class="fil0" d="M122 132c0,2 -3,8 -4,10l-9 20c-1,2 -1,3 -3,4 -1,1 -3,2 -5,2 -2,0 -4,-1 -5,-2 -2,-1 -4,-1 -5,-2l-20 -9c-2,-1 -4,-1 -5,-3 -3,-4 -1,-7 1,-11l6 -15c2,-3 3,-6 5,-10 0,-2 1,-3 2,-4 4,-3 8,-1 11,1 4,1 26,11 28,12 2,1 3,4 3,7zm-70 -3c0,2 -4,6 -5,8 -3,5 -7,10 -11,15 -1,1 -2,2 -3,3 -2,2 -5,2 -7,0 -2,-1 -4,-3 -6,-4l-11 -8c-1,-1 -3,-2 -4,-3 -1,-1 -3,-2 -4,-3 0,-1 -1,-3 -1,-5 1,-2 2,-3 3,-4l13 -19c2,-2 4,-5 9,-5 0,1 1,1 2,1 2,2 7,5 9,7 1,1 3,2 4,3 2,2 10,7 11,8 1,2 2,4 1,6zm53 -53c0,0 3,0 3,0l9 0c2,0 12,0 13,0 0,-1 15,-8 18,-10 2,-1 5,0 6,2l3 6c1,2 2,4 3,6 1,2 2,4 3,6 1,1 1,2 1,4 0,1 -1,2 -1,3 -1,1 -16,8 -18,9 -2,1 -5,2 -7,1 -1,-1 -1,-2 -2,-3l-5 -9c-1,-2 -2,-4 -3,-6 -1,-2 -2,-3 -1,-7 -1,0 -16,0 -16,0l6 5c0,1 2,1 1,3 0,1 -5,8 -6,9 -2,3 -3,4 -6,2 -2,-2 -7,-5 -9,-6 -3,-3 0,-5 1,-7l5 -6c1,-1 1,-2 2,-2zm-105 105l181 0 0 -51 -14 0c-1,0 -1,0 -1,1 0,0 0,0 0,0 2,2 2,4 1,5l-2 3c0,0 -1,1 -2,2l-9 13c-1,2 -4,2 -6,1 -1,0 -8,-6 -9,-6l-8 -6c0,0 0,0 -1,-1 -1,-1 -2,-3 -1,-5 0,-1 1,-2 2,-3 0,0 1,-1 1,-2 2,-3 4,-6 7,-9 0,-1 1,-1 1,-2 1,-1 1,-2 2,-2 2,-3 4,-2 5,-2 2,1 15,0 17,0 6,0 11,0 17,0l0 -85c-2,0 -5,0 -8,0 -1,0 -6,0 -7,0 0,2 1,2 1,5 0,1 -1,2 -2,3 -1,2 -6,6 -8,8l-6 4c0,1 -1,2 -2,3l-12 9c-2,1 -5,2 -8,0 -3,-1 -4,-4 -5,-5 -1,0 -2,0 -3,0l-22 0c-8,0 -16,0 -24,0 -1,0 -1,0 -1,0l11 8c1,1 3,4 1,7l-2 2c0,1 -1,2 -2,3l-8 11c0,1 -1,2 -2,3 -1,2 -4,3 -6,1 -1,0 -2,-1 -3,-2 -2,-1 -4,-2 -5,-4 -2,-1 -4,-2 -6,-4 -2,-1 -4,-2 -5,-4 -2,-1 -3,-4 -2,-6 1,-1 2,-2 2,-3 1,-1 2,-2 2,-3 2,-2 3,-4 4,-5 2,-2 3,-4 4,-6 2,-2 3,-4 6,-4 0,0 0,-1 0,0l3 0c17,0 34,0 51,0 1,0 2,0 2,-1 0,0 -1,0 -1,-1 0,0 0,0 -1,0l-7 -9c-1,-1 -2,-2 -3,-3 -1,-3 -4,-5 -3,-9 1,-3 2,-4 4,-6 0,0 1,-1 2,-1 0,-1 0,0 0,0l-16 0c-1,0 -2,-1 -2,0 0,0 1,0 1,1 3,1 6,3 4,6 -2,2 -4,5 -6,7 0,1 -1,1 -1,2 -2,3 -4,1 -6,0 0,-1 -7,-5 -7,-5 -1,-1 -2,-1 -3,-1 -3,0 -18,0 -19,0 0,1 1,1 1,2 2,2 2,4 1,6 -1,2 -3,4 -5,5 -5,5 -12,10 -17,15 -2,1 -4,3 -8,2 -1,-1 -2,-1 -3,-2 -2,-2 -5,-7 -7,-9l-8 -10c-2,-2 -5,-5 -4,-9 0,-2 2,-3 3,-4l6 -5c2,-1 4,-3 6,-5l8 -7c1,0 1,0 2,-1 1,-1 2,-1 4,-1 1,0 10,0 11,0 25,0 50,0 74,0 1,0 5,1 6,0 0,0 2,-1 2,-2 1,0 2,-1 2,-1 0,-1 0,-1 0,-2 0,0 0,-1 0,-2 0,-1 0,-2 0,-3l-129 0 0 181z"/>
   <path class="fil1" d="M152 28l8 0c0,1 0,1 1,2 1,1 2,3 3,4 2,4 -3,7 -6,9l-5 5c-1,0 -1,1 -2,1 0,0 0,1 -1,1l2 -22zm-25 12c1,-6 1,-12 2,-17 0,-3 0,-6 1,-9 0,-1 0,-4 0,-5 0,0 1,0 1,0l2 -2c1,-1 3,-3 7,-2 1,1 1,1 2,2l10 12c0,1 1,1 1,2l-20 -2 -1 7c1,0 5,0 6,0l4 1c1,0 1,0 2,0 -1,6 -2,12 -2,18 0,3 -1,6 -1,9 0,5 0,4 -2,5 0,1 -1,1 -1,1 -1,1 -2,2 -3,2 -1,1 -3,1 -4,0 -2,-1 -2,-1 -3,-2l-3 -4c-1,-1 -1,-1 -1,-2 -1,0 -2,-1 -2,-2 -1,-1 -5,-5 -5,-6l21 2 1 -7 -12 -1zm-8 -1c-2,0 -4,0 -6,0 -1,0 -2,0 -3,-1 -1,-1 -3,-4 -3,-5 -1,-2 0,-4 0,-5 1,-1 9,-7 10,-8 1,-1 1,-1 2,-2 1,0 1,0 2,-1l-2 22zm10 -32c0,0 -1,1 -2,1 0,1 -2,2 -2,2 0,1 -1,1 -1,1l-9 7c-1,1 -5,4 -5,5 -1,0 -2,1 -2,1 -2,2 -3,3 -4,6 -1,4 2,6 3,9 1,1 2,2 3,3l7 9c1,0 1,0 1,0 0,1 1,1 1,1 0,1 2,3 2,4 1,0 1,1 2,1 0,1 1,1 1,2 1,1 2,4 5,5 3,2 6,1 8,0l12 -9c1,-1 2,-2 2,-3l6 -4c2,-2 7,-6 8,-8 1,-1 2,-2 2,-3 0,-3 -1,-3 -1,-5l-8 -10c-2,-2 -4,-5 -6,-7l-2 -2c-2,-3 -4,-5 -6,-8 -2,-2 -6,-4 -9,-2 -2,0 -2,1 -3,2 -1,0 -2,1 -3,2z"/>
   <path class="fil0" d="M55 33c1,0 16,0 19,0 1,0 2,0 3,1 -1,-1 -1,-1 -1,-2 -2,-2 0,-4 1,-5l6 -8c2,-2 4,0 6,2 1,0 3,2 3,2 0,-1 1,0 2,0l16 0c0,0 0,-1 0,0 0,-1 4,-4 5,-5l9 -7c0,0 1,0 1,-1 -1,1 -5,0 -6,0 -24,0 -49,0 -74,0 -1,0 -10,0 -11,0 1,1 1,1 2,1 2,1 3,3 4,4 1,1 1,1 1,2l14 16z"/>
   <path class="fil1" d="M106 151c0,1 1,3 2,4 1,3 1,2 0,4 -2,3 -2,6 -6,6 -2,1 -3,0 -4,-1 -2,0 -3,-1 -4,-1l-8 -4 20 -8zm-22 -16c1,0 6,-2 7,-3l18 -7c4,-1 2,-1 7,1 1,0 2,1 3,2 2,2 0,5 -1,7l-6 13c0,0 0,0 0,0l-7 -17 -6 2 4 10c-1,1 -3,1 -4,2 -1,0 -2,1 -3,1l-18 7c-2,1 -3,1 -4,1 -2,-1 -5,-2 -6,-3 -2,-3 0,-5 1,-8 0,-2 5,-13 6,-14 1,3 2,7 3,10 1,1 4,9 4,9l6 -3 -4 -10zm-3 -8c0,-1 -1,-3 -1,-4 -2,-3 -2,-2 -1,-4 1,-3 2,-6 6,-6 2,0 12,5 16,6 0,1 0,0 0,1 0,0 -1,0 -1,0l-9 3c-2,1 -9,4 -10,4zm41 5c0,-3 -1,-6 -3,-7 -2,-1 -24,-11 -28,-12 -3,-2 -7,-4 -11,-1 -1,1 -2,2 -2,4 -2,4 -3,7 -5,10l-6 15c-2,4 -4,7 -1,11 1,2 3,2 5,3l20 9c1,1 3,1 5,2 1,1 3,2 5,2 2,0 4,-1 5,-2 2,-1 2,-2 3,-4l9 -20c1,-2 4,-8 4,-10z"/>
   <path class="fil2" d="M129 7c1,-1 2,-2 3,-2 1,-1 1,-2 3,-2 3,-2 7,0 9,2 2,3 4,5 6,8l2 2c2,2 4,5 6,7l8 10c1,0 6,0 7,0 3,0 6,0 8,0l0 -32 -52 0c0,1 0,2 0,3 0,1 0,2 0,2 0,1 0,1 0,2z"/>
   <path class="fil1" d="M14 138c-1,1 -3,1 -4,1 -3,0 -2,0 -4,-1 -1,0 -2,-1 -3,-2 -1,-2 -1,-4 1,-6 1,-1 7,-10 7,-10l3 18zm25 -16c1,0 3,-1 4,-1 2,0 1,0 4,1 1,2 4,3 3,7 0,1 -1,2 -2,3 -1,1 -1,2 -2,3 -1,0 -1,1 -1,1 -1,1 -3,4 -3,4l-3 -18zm-18 15c-1,-7 -2,-14 -3,-21 0,-1 -1,-2 -1,-3 0,-1 0,-1 1,-2 1,-2 2,-5 5,-5 2,0 2,1 3,2 2,1 12,8 12,8l-17 3 1 5c2,1 8,-1 10,-1l3 22c1,4 1,3 -1,6 -1,1 -2,3 -5,3 -1,0 -2,0 -3,-1l-12 -9c0,0 0,0 0,0 2,0 17,-2 18,-3l-1 -5c-2,0 -9,1 -10,1zm31 -8c1,-2 0,-4 -1,-6 -1,-1 -9,-6 -11,-8 -1,-1 -3,-2 -4,-3 -2,-2 -7,-5 -9,-7 -1,0 -2,0 -2,-1 -5,0 -7,3 -9,5l-13 19c-1,1 -2,2 -3,4 0,2 1,4 1,5 1,1 3,2 4,3 1,1 3,2 4,3l11 8c2,1 4,3 6,4 2,2 5,2 7,0 1,-1 2,-2 3,-3 4,-5 8,-10 11,-15 1,-2 5,-6 5,-8z"/>
   <path class="fil2" d="M127 40l12 1 -1 7 -21 -2c0,1 4,5 5,6 0,1 1,2 2,2 0,1 0,1 1,2l3 4c1,1 1,1 3,2 1,1 3,1 4,0 1,0 2,-1 3,-2 0,0 1,0 1,-1 2,-1 2,0 2,-5 0,-3 1,-6 1,-9 0,-6 1,-12 2,-18 -1,0 -1,0 -2,0l-4 -1c-1,0 -5,0 -6,0l1 -7 20 2c0,-1 -1,-1 -1,-2l-10 -12c-1,-1 -1,-1 -2,-2 -4,-1 -6,1 -7,2l-2 2c0,0 -1,0 -1,0 0,1 0,4 0,5 -1,3 -1,6 -1,9 -1,5 -1,11 -2,17z"/>
   <path class="fil2" d="M84 135l4 10 -6 3c0,0 -3,-8 -4,-9 -1,-3 -2,-7 -3,-10 -1,1 -6,12 -6,14 -1,3 -3,5 -1,8 1,1 4,2 6,3 1,0 2,0 4,-1l18 -7c1,0 2,-1 3,-1 1,-1 3,-1 4,-2l-4 -10 6 -2 7 17c0,0 0,0 0,0l6 -13c1,-2 3,-5 1,-7 -1,-1 -2,-2 -3,-2 -5,-2 -3,-2 -7,-1l-18 7c-1,1 -6,3 -7,3z"/>
   <path class="fil1" d="M56 80c-2,1 -3,1 -4,1 -2,0 -2,0 -3,-1 -1,0 -2,-1 -2,-2 -1,-1 -1,-2 0,-3 0,-1 6,-9 6,-9 1,2 2,8 2,11l1 3c0,0 0,0 0,0 0,0 0,0 0,0zm20 -13c0,0 1,0 2,0 3,-1 2,-1 4,0 2,1 4,3 3,5 0,1 -3,5 -3,5 -1,1 -3,4 -4,5l-2 -15zm-14 12c-1,0 -3,-14 -3,-17 0,-1 -1,-2 -1,-3 0,0 0,0 1,-1 1,-1 2,-4 4,-4 1,0 2,1 3,1l3 3c1,1 2,1 2,1 1,1 4,3 4,3l-13 2 0 5 8 -1c0,2 1,4 1,6l2 14c0,1 -1,2 -1,3 -1,1 -2,2 -4,2 -1,0 -2,0 -2,-1l-9 -6c0,0 -1,0 -1,-1l14 -2c0,-1 0,-4 -1,-5l-7 1zm12 -20c-1,0 -1,0 -2,-1l-6 -4c-1,-1 -2,-1 -3,-1 -3,0 -4,2 -6,4 -1,2 -2,4 -4,6 -1,1 -2,3 -4,5 0,1 -1,2 -2,3 0,1 -1,2 -2,3 -1,2 0,5 2,6 1,2 3,3 5,4 2,2 4,3 6,4 1,2 3,3 5,4 1,1 2,2 3,2 2,2 5,1 6,-1 1,-1 2,-2 2,-3l8 -11c1,-1 2,-2 2,-3l2 -2c2,-3 0,-6 -1,-7l-11 -8z"/>
   <path class="fil2" d="M21 137c1,0 8,-1 10,-1l1 5c-1,1 -16,3 -18,3 0,0 0,0 0,0l12 9c1,1 2,1 3,1 3,0 4,-2 5,-3 2,-3 2,-2 1,-6l-3 -22c-2,0 -8,2 -10,1l-1 -5 17 -3c0,0 -10,-7 -12,-8 -1,-1 -1,-2 -3,-2 -3,0 -4,3 -5,5 -1,1 -1,1 -1,2 0,1 1,2 1,3 1,7 2,14 3,21z"/>
   <path class="fil1" d="M137 129l2 13c-1,0 -2,1 -4,1 -1,0 -1,0 -2,-1 -1,0 -2,-1 -2,-1 -2,-3 0,-4 1,-6l5 -6zm20 1c1,0 2,0 3,0 2,-1 2,-1 3,0 1,1 3,2 3,5 -1,1 -1,2 -2,2l-3 5c-1,0 -1,1 -2,2l-2 -14zm-1 -4c0,0 -4,0 -6,1 -1,0 -5,0 -6,1l1 4c0,0 0,0 0,0 1,0 6,-1 7,-1 1,3 1,7 2,11l1 8c0,0 -1,1 -1,2 -1,1 -2,2 -4,2 -1,0 -3,-1 -4,-2l-5 -4c-1,0 -1,-1 -2,-1 0,-1 3,-1 3,-1l10 -1 -1 -5 -7 1c-1,-4 -2,-10 -2,-15 -1,-4 -1,-3 0,-5 1,-1 2,-2 4,-2 1,-1 3,1 5,3l5 4zm10 5l-19 -14c0,0 0,0 0,0 -1,0 -3,-1 -5,2 -1,0 -1,1 -2,2 0,1 -1,1 -1,2 -3,3 -5,6 -7,9 0,1 -1,2 -1,2 -1,1 -2,2 -2,3 -1,2 0,4 1,5 1,1 1,1 1,1l8 6c1,0 8,6 9,6 2,1 5,1 6,-1l9 -13c1,-1 2,-2 2,-2l2 -3c1,-1 1,-3 -1,-5 0,0 0,0 0,0z"/>
   <path class="fil1" d="M152 97l4 -14c1,1 2,1 3,1 2,1 1,0 2,2 1,2 2,4 1,5 -1,2 -4,2 -5,3 -2,1 -3,2 -5,3zm-12 -10c0,-1 2,-7 3,-9l2 -7c0,-1 0,-2 1,-2 1,-1 3,-2 5,-1 1,0 2,1 3,3 0,1 4,8 4,8l-12 -4 -1 5 6 2c-1,3 -2,6 -3,9l-2 8c-1,1 0,1 -2,2 -1,0 -3,1 -4,1 -2,-1 -2,-2 -3,-4l-4 -8 12 4 1 -4c-1,-1 -2,-1 -3,-1 -1,-1 -1,-1 -2,-1 0,0 -1,0 -1,-1zm-6 -1c0,0 -2,-1 -2,-1 -2,-1 -2,0 -3,-2 -1,-1 -2,-3 0,-5 1,-1 3,-2 5,-3 1,0 3,-2 5,-2l-5 13zm-4 -10c-1,0 -1,0 -1,0 -1,0 -1,1 -1,1 -1,0 -1,1 -1,1 -1,4 0,5 1,7 1,2 2,4 3,6l5 9c1,1 1,2 2,3 2,1 5,0 7,-1 2,-1 17,-8 18,-9 0,-1 1,-2 1,-3 0,-2 0,-3 -1,-4 -1,-2 -2,-4 -3,-6 -1,-2 -2,-4 -3,-6l-3 -6c-1,-2 -4,-3 -6,-2 -3,2 -18,9 -18,10z"/>
   <path class="fil2" d="M62 79l7 -1c1,1 1,4 1,5l-14 2c0,1 1,1 1,1l9 6c0,1 1,1 2,1 2,0 3,-1 4,-2 0,-1 1,-2 1,-3l-2 -14c0,-2 -1,-4 -1,-6l-8 1 0 -5 13 -2c0,0 -3,-2 -4,-3 0,0 -1,0 -2,-1l-3 -3c-1,0 -2,-1 -3,-1 -2,0 -3,3 -4,4 -1,1 -1,1 -1,1 0,1 1,2 1,3 0,3 2,17 3,17z"/>
   <path class="fil2" d="M63 53c1,0 2,0 3,1l6 4c1,1 1,1 2,1 0,0 0,0 1,0 8,0 16,0 24,0l22 0c1,0 2,0 3,0 0,-1 -1,-1 -1,-2 -1,0 -1,-1 -2,-1 0,-1 -2,-3 -2,-4 0,1 -1,1 -2,1 -17,0 -34,0 -51,0l-3 0c0,-1 0,0 0,0z"/>
   <path class="fil2" d="M166 131c0,-1 0,-1 1,-1l14 0 0 -13c-6,0 -11,0 -17,0 -2,0 -15,1 -17,0 0,0 0,0 0,0l19 14z"/>
   <path class="fil2" d="M140 87c0,1 1,1 1,1 1,0 1,0 2,1 1,0 2,0 3,1l-1 4 -12 -4 4 8c1,2 1,3 3,4 1,0 3,-1 4,-1 2,-1 1,-1 2,-2l2 -8c1,-3 2,-6 3,-9l-6 -2 1 -5 12 4c0,0 -4,-7 -4,-8 -1,-2 -2,-3 -3,-3 -2,-1 -4,0 -5,1 -1,0 -1,1 -1,2l-2 7c-1,2 -3,8 -3,9z"/>
   <path class="fil2" d="M151 122c-2,-2 -4,-4 -5,-3 -2,0 -3,1 -4,2 -1,2 -1,1 0,5 0,5 1,11 2,15l7 -1 1 5 -10 1c0,0 -3,0 -3,1 1,0 1,1 2,1l5 4c1,1 3,2 4,2 2,0 3,-1 4,-2 0,-1 1,-2 1,-2l-1 -8c-1,-4 -1,-8 -2,-11 -1,0 -6,1 -7,1 0,0 0,0 0,0l-1 -4c1,-1 5,-1 6,-1 2,-1 6,-1 6,-1l-5 -4z"/>
   <path class="fil2" d="M150 50c1,0 1,-1 1,-1 1,0 1,-1 2,-1l5 -5c3,-2 8,-5 6,-9 -1,-1 -2,-3 -3,-4 -1,-1 -1,-1 -1,-2l-8 0 -2 22z"/>
   <path class="fil2" d="M119 39l2 -22c-1,1 -1,1 -2,1 -1,1 -1,1 -2,2 -1,1 -9,7 -10,8 0,1 -1,3 0,5 0,1 2,4 3,5 1,1 2,1 3,1 2,0 4,0 6,0z"/>
   <path class="fil2" d="M81 127c1,0 8,-3 10,-4l9 -3c0,0 1,0 1,0 0,-1 0,0 0,-1 -4,-1 -14,-6 -16,-6 -4,0 -5,3 -6,6 -1,2 -1,1 1,4 0,1 1,3 1,4z"/>
   <path class="fil2" d="M86 159l8 4c1,0 2,1 4,1 1,1 2,2 4,1 4,0 4,-3 6,-6 1,-2 1,-1 0,-4 -1,-1 -2,-3 -2,-4l-20 8z"/>
   <path class="fil3" d="M102 90c-1,1 -1,1 -2,1 -1,0 -1,0 -2,-1 -2,-2 -1,-2 1,-5 0,0 1,-2 2,-2l1 7zm11 -7c0,0 1,0 1,0 1,0 1,0 2,1 2,1 2,2 0,4 0,0 0,0 0,1 -1,0 -2,2 -2,2l-1 -8zm-8 7c0,-2 -1,-4 -1,-6 0,-1 0,-2 -1,-3 0,-2 0,-2 1,-3 1,-2 2,-2 4,0 1,0 4,2 4,3l-7 1c0,1 0,2 0,2l4 0c1,2 1,7 2,9 0,2 0,2 0,3 -2,2 -3,1 -5,0 -1,-1 -1,-1 -2,-2 -1,0 -2,-1 -2,-1l7 -1 0 -3c-1,0 -3,1 -4,1zm6 -12c-1,0 -2,-1 -3,-1 -1,-1 -1,-1 -3,-1 -1,0 -1,1 -2,2l-5 6c-1,2 -4,4 -1,7 2,1 7,4 9,6 3,2 4,1 6,-2 1,-1 6,-8 6,-9 1,-2 -1,-2 -1,-3l-6 -5z"/>
   <path class="fil1" d="M81 33c-3,0 -3,0 -4,0 0,-1 -1,-1 -1,-1 0,-1 0,-2 0,-2l3 -5c1,0 2,7 2,8zm10 -7c3,-1 3,-1 4,0 1,0 2,1 1,3 0,0 0,1 -1,1 0,1 -2,3 -2,3l-2 -7zm-9 -3c0,-2 0,-2 1,-3 1,-1 1,-2 4,0 1,1 4,3 4,3l-7 1 0 3 4 -1 2 9c0,2 0,2 -1,3 -1,2 -2,2 -4,0 -1,0 -4,-2 -4,-3l7 -1 0 -2c-1,0 -3,0 -4,0l-2 -9zm-5 11c0,0 7,4 7,5 2,1 4,3 6,0 0,-1 1,-1 1,-2 2,-2 4,-5 6,-7 2,-3 -1,-5 -4,-6 0,-1 -1,-1 -1,-1 0,0 -2,-2 -3,-2 -2,-2 -4,-4 -6,-2l-6 8c-1,1 -3,3 -1,5 0,1 0,1 1,2z"/>
   <g>
    <path class="fil1" d="M44 51l1 -19c1,0 4,0 5,0 2,0 1,0 3,2 1,1 2,2 2,3 2,3 -1,5 -3,7 -1,0 -2,1 -3,2 0,0 -1,1 -1,1l-4 3c0,0 0,0 0,0 0,0 0,0 0,0 0,1 0,0 0,1zm-20 -9c0,-1 2,-19 2,-22 1,-4 0,-3 3,-5 5,-5 7,-1 11,3l5 7c0,0 1,0 1,1l-17 -2 0 6 9 1c0,3 0,5 -1,8l-1 15c0,3 0,3 -2,4 -1,1 -2,3 -3,3 -3,1 -5,-1 -6,-2l-2 -3c-2,-2 -7,-8 -7,-9l17 2c1,-1 1,-5 1,-6l-10 -1zm-7 0c-1,-1 -3,-1 -5,-1 -2,0 -1,0 -2,-1 -2,-2 -5,-4 -2,-8 0,0 4,-4 5,-5 1,0 2,-1 3,-2l3 -2 -2 19zm38 -9l-14 -16c0,-1 0,-1 -1,-2 -1,-1 -2,-3 -4,-4 -1,0 -1,0 -2,-1 -2,0 -3,0 -4,1 -1,1 -1,1 -2,1l-8 7c-2,2 -4,4 -6,5l-6 5c-1,1 -3,2 -3,4 -1,4 2,7 4,9l8 10c2,2 5,7 7,9 1,1 2,1 3,2 4,1 6,-1 8,-2 5,-5 12,-10 17,-15 2,-1 4,-3 5,-5 1,-2 1,-4 -1,-6 0,-1 -1,-1 -1,-2z"/>
    <path class="fil4" d="M24 42l10 1c0,1 0,5 -1,6l-17 -2c0,1 5,7 7,9l2 3c1,1 3,3 6,2 1,0 2,-2 3,-3 2,-1 2,-1 2,-4l1 -15c1,-3 1,-5 1,-8l-9 -1 0 -6 17 2c0,-1 -1,-1 -1,-1l-5 -7c-4,-4 -6,-8 -11,-3 -3,2 -2,1 -3,5 0,3 -2,21 -2,22z"/>
    <path class="fil4" d="M17 42l2 -19 -3 2c-1,1 -2,2 -3,2 -1,1 -5,5 -5,5 -3,4 0,6 2,8 1,1 0,1 2,1 2,0 4,0 5,1z"/>
    <path class="fil4" d="M44 51c0,-1 0,0 0,-1 0,0 0,0 0,0 0,0 0,0 0,0l4 -3c0,0 1,-1 1,-1 1,-1 2,-2 3,-2 2,-2 5,-4 3,-7 0,-1 -1,-2 -2,-3 -2,-2 -1,-2 -3,-2 -1,0 -4,0 -5,0l-1 19z"/>
   </g>
   <path class="fil2" d="M39 122l3 18c0,0 2,-3 3,-4 0,0 0,-1 1,-1 1,-1 1,-2 2,-3 1,-1 2,-2 2,-3 1,-4 -2,-5 -3,-7 -3,-1 -2,-1 -4,-1 -1,0 -3,1 -4,1z"/>
   <path class="fil2" d="M14 138l-3 -18c0,0 -6,9 -7,10 -2,2 -2,4 -1,6 1,1 2,2 3,2 2,1 1,1 4,1 1,0 3,0 4,-1z"/>
   <path class="fil2" d="M84 32c1,0 3,0 4,0l0 2 -7 1c0,1 3,3 4,3 2,2 3,2 4,0 1,-1 1,-1 1,-3l-2 -9 -4 1 0 -3 7 -1c0,0 -3,-2 -4,-3 -3,-2 -3,-1 -4,0 -1,1 -1,1 -1,3l2 9z"/>
   <path class="fil2" d="M105 90c1,0 3,-1 4,-1l0 3 -7 1c0,0 1,1 2,1 1,1 1,1 2,2 2,1 3,2 5,0 0,-1 0,-1 0,-3 -1,-2 -1,-7 -2,-9l-4 0c0,0 0,-1 0,-2l7 -1c0,-1 -3,-3 -4,-3 -2,-2 -3,-2 -4,0 -1,1 -1,1 -1,3 1,1 1,2 1,3 0,2 1,4 1,6z"/>
   <path class="fil2" d="M56 80c0,0 0,0 0,0 0,0 0,0 0,0l-1 -3c0,-3 -1,-9 -2,-11 0,0 -6,8 -6,9 -1,1 -1,2 0,3 0,1 1,2 2,2 1,1 1,1 3,1 1,0 2,0 4,-1z"/>
   <path class="fil2" d="M76 67l2 15c1,-1 3,-4 4,-5 0,0 3,-4 3,-5 1,-2 -1,-4 -3,-5 -2,-1 -1,-1 -4,0 -1,0 -2,0 -2,0z"/>
   <path class="fil2" d="M159 144c1,-1 1,-2 2,-2l3 -5c1,0 1,-1 2,-2 0,-3 -2,-4 -3,-5 -1,-1 -1,-1 -3,0 -1,0 -2,0 -3,0l2 14z"/>
   <path class="fil2" d="M134 86l5 -13c-2,0 -4,2 -5,2 -2,1 -4,2 -5,3 -2,2 -1,4 0,5 1,2 1,1 3,2 0,0 2,1 2,1z"/>
   <path class="fil2" d="M152 97c2,-1 3,-2 5,-3 1,-1 4,-1 5,-3 1,-1 0,-3 -1,-5 -1,-2 0,-1 -2,-2 -1,0 -2,0 -3,-1l-4 14z"/>
   <path class="fil2" d="M132 135c-1,2 -3,3 -1,6 0,0 1,1 2,1 1,1 1,1 2,1 2,0 3,-1 4,-1l-2 -13 -5 6z"/>
   <path class="fil2" d="M105 76c2,0 2,0 3,1 1,0 2,1 3,1 0,0 15,0 16,0 0,0 0,-1 1,-1 0,0 0,-1 1,-1 0,0 0,0 1,0 -1,0 -11,0 -13,0l-9 0c0,0 -3,0 -3,0z"/>
   <path class="fil2" d="M81 33c0,-1 -1,-8 -2,-8l-3 5c0,0 0,1 0,2 0,0 1,0 1,1 1,0 1,0 4,0z"/>
   <path class="fil2" d="M91 26l2 7c0,0 2,-2 2,-3 1,0 1,-1 1,-1 1,-2 0,-3 -1,-3 -1,-1 -1,-1 -4,0z"/>
   <path class="fil2" d="M102 90l-1 -7c-1,0 -2,2 -2,2 -2,3 -3,3 -1,5 1,1 1,1 2,1 1,0 1,0 2,-1z"/>
   <path class="fil2" d="M113 83l1 8c0,0 1,-2 2,-2 0,-1 0,-1 0,-1 2,-2 2,-3 0,-4 -1,-1 -1,-1 -2,-1 0,0 -1,0 -1,0z"/>
  </g>
 </g>
</svg>
